<svg width="31" height="30" viewBox="0 0 31 30" fill="none" xmlns="http://www.w3.org/2000/svg">
<g clip-path="url(#clip0_336_3490)">
<path d="M27.8496 0H2.28516C1.06055 0 0.0703125 0.966797 0.0703125 2.16211V27.832C0.0703125 29.0273 1.06055 30 2.28516 30H27.8496C29.0742 30 30.0703 29.0273 30.0703 27.8379V2.16211C30.0703 0.966797 29.0742 0 27.8496 0ZM8.9707 25.5645H4.51758V11.2441H8.9707V25.5645ZM6.74414 9.29297C5.31445 9.29297 4.16016 8.13867 4.16016 6.71484C4.16016 5.29102 5.31445 4.13672 6.74414 4.13672C8.16797 4.13672 9.32227 5.29102 9.32227 6.71484C9.32227 8.13281 8.16797 9.29297 6.74414 9.29297ZM25.6348 25.5645H21.1875V18.6035C21.1875 16.9453 21.1582 14.8066 18.873 14.8066C16.5586 14.8066 16.207 16.6172 16.207 18.4863V25.5645H11.7656V11.2441H16.0312V13.2012H16.0898C16.6816 12.0762 18.1348 10.8867 20.2969 10.8867C24.8027 10.8867 25.6348 13.8516 25.6348 17.707V25.5645V25.5645Z" fill="#34364b"/>
</g>
<defs>
<clipPath id="clip0_336_3490">
<rect width="30" height="30" fill="white" transform="translate(0.0703125)"/>
</clipPath>
</defs>
</svg>
