<svg width="22" height="22" viewBox="0 0 22 22" fill="none" xmlns="http://www.w3.org/2000/svg">
<path d="M11.0003 1.84229C7.46566 1.84229 4.59082 4.71891 4.59082 8.25358C4.59082 12.363 10.0603 19.0384 10.2931 19.3198L11.0003 20.1774L11.7075 19.3198C11.9404 19.0375 17.4098 12.363 17.4098 8.25358C17.4098 4.718 14.535 1.84229 11.0003 1.84229ZM11.0003 3.67562C13.5239 3.67562 15.5765 5.73 15.5765 8.25358C15.5765 10.7332 12.7218 14.9977 11.0003 17.2573C9.27883 14.9996 6.42415 10.7368 6.42415 8.25358C6.42415 5.73 8.47674 3.67562 11.0003 3.67562ZM11.0003 5.95833C9.73441 5.95833 8.70866 6.98408 8.70866 8.25C8.70866 9.51592 9.73441 10.5417 11.0003 10.5417C12.2662 10.5417 13.292 9.51592 13.292 8.25C13.292 6.98408 12.2662 5.95833 11.0003 5.95833Z" fill="#A7715F"/>
</svg>
