<svg width="31" height="30" viewBox="0 0 31 30" fill="none" xmlns="http://www.w3.org/2000/svg">
<g clip-path="url(#clip0_336_3491)">
<path d="M9.50801 27.1875C20.826 27.1875 27.0182 17.8084 27.0182 9.67739C27.0182 9.41372 27.0123 9.14418 27.0006 8.88051C28.2052 8.00939 29.2447 6.93038 30.0703 5.69418C28.9485 6.19331 27.7574 6.51929 26.5377 6.66098C27.8219 5.8912 28.7835 4.6819 29.2441 3.25727C28.036 3.97326 26.7148 4.47833 25.3371 4.75082C24.4089 3.76451 23.1815 3.11146 21.8449 2.89262C20.5083 2.67379 19.1368 2.90137 17.9425 3.54018C16.7482 4.17899 15.7976 5.19344 15.2376 6.4267C14.6777 7.65996 14.5396 9.04333 14.8447 10.3629C12.3984 10.2402 10.0052 9.60469 7.82029 8.49768C5.63535 7.39068 3.70743 5.83686 2.16152 3.93696C1.37581 5.29162 1.13538 6.89462 1.4891 8.42018C1.84282 9.94573 2.76414 11.2794 4.06582 12.15C3.0886 12.119 2.13278 11.8559 1.27734 11.3825V11.4586C1.27647 12.8802 1.76793 14.2583 2.6682 15.3585C3.56846 16.4588 4.82197 17.2133 6.21562 17.4938C5.31038 17.7415 4.36029 17.7776 3.43887 17.5993C3.83213 18.8219 4.59728 19.8912 5.62753 20.658C6.65777 21.4248 7.90171 21.8508 9.18574 21.8766C7.00584 23.589 4.31303 24.5177 1.54102 24.5133C1.04942 24.5126 0.558311 24.4824 0.0703125 24.4231C2.88638 26.2297 6.16223 27.1893 9.50801 27.1875Z" fill="#34364b"/>
</g>
<defs>
<clipPath id="clip0_336_3491">
<rect width="30" height="30" fill="white" transform="translate(0.0703125)"/>
</clipPath>
</defs>
</svg>
