<svg width="50" height="50" viewBox="0 0 50 50" fill="none" xmlns="http://www.w3.org/2000/svg">
<path d="M21.6663 3.33325C21.2243 3.33325 20.8004 3.50885 20.4878 3.82141C20.1753 4.13397 19.9997 4.55789 19.9997 4.99992C19.9997 13.4283 8.33301 19.9999 8.33301 31.6666C8.33301 40.5296 17.9388 46.2598 21.3213 46.6308C21.4347 46.6547 21.5504 46.6667 21.6663 46.6666C22.1084 46.6666 22.5323 46.491 22.8449 46.1784C23.1574 45.8659 23.333 45.4419 23.333 44.9999C23.3329 44.7523 23.2776 44.5079 23.1712 44.2844C23.0648 44.0608 22.9099 43.8638 22.7178 43.7076V43.7043C21.2011 42.4743 18.333 38.906 18.333 35.6477C18.333 30.2994 23.333 28.3333 23.333 28.3333C20.4813 36.3999 29.8254 37.3746 31.7054 45.3612H31.7087C31.7908 45.731 31.9964 46.0618 32.2917 46.2991C32.5869 46.5364 32.9542 46.666 33.333 46.6666C33.684 46.6657 34.0258 46.5541 34.3096 46.3476C34.3396 46.3258 34.3689 46.303 34.3975 46.2792C34.6687 46.1031 41.6663 41.475 41.6663 31.6666C41.6663 27.6622 39.6636 20.7841 38.2223 17.7375L38.2191 17.7278L38.2158 17.7213C38.0931 17.4104 37.8797 17.1436 37.6034 16.9555C37.3271 16.7674 37.0006 16.6667 36.6663 16.6666C36.2771 16.667 35.9003 16.8035 35.6012 17.0527C35.3021 17.3018 35.0997 17.6478 35.029 18.0305V18.037C35.0249 18.0552 34.2594 21.455 31.6663 23.3333C31.6663 15.4805 25.9969 7.36927 23.0075 4.01359C22.9626 3.95283 22.9137 3.89519 22.861 3.84106C22.706 3.68081 22.5203 3.55329 22.3151 3.46607C22.1099 3.37884 21.8893 3.33368 21.6663 3.33325Z" fill="url(#paint0_linear_405_2158)"/>
<defs>
<linearGradient id="paint0_linear_405_2158" x1="24.9997" y1="3.33325" x2="24.9997" y2="46.6666" gradientUnits="userSpaceOnUse">
<stop stop-color="#837A87"/>
<stop offset="1" stop-color="#B48981"/>
</linearGradient>
</defs>
</svg>
