<svg width="190" height="36" viewBox="0 0 190 36" fill="none" xmlns="http://www.w3.org/2000/svg">
<g clip-path="url(#clip0_633_6801)">
<path d="M41.5548 0C41.8075 0.213507 42.0962 0.395844 42.3034 0.645195C42.7255 1.15013 42.7444 2.6961 42.3614 3.23688C42.1104 3.59221 41.7792 3.82597 41.3194 3.82909C41.1374 3.82909 40.9538 3.83221 40.7717 3.83221C28.3681 3.83221 15.9644 3.83221 3.56066 3.82909C3.25151 3.82909 2.93608 3.80571 2.63635 3.73714C2.47157 3.69974 2.31307 3.56571 2.18596 3.44104C1.34796 2.61818 1.66966 0.701299 2.72423 0.176104C2.81682 0.130909 2.89528 0.0592208 2.97845 0C15.8372 0 28.696 0 41.5548 0Z" fill="#6F6F84"/>
<path d="M22.2681 5.48255C27.4421 5.48255 32.616 5.47787 37.79 5.4919C38.1949 5.4919 38.6327 5.55736 38.9984 5.71943C39.5617 5.97034 39.816 6.4971 39.8944 7.09242C39.9242 7.32151 39.9133 7.55684 39.9133 7.78904C39.9133 16.4555 39.9133 25.1236 39.9133 33.7901C39.9133 34.0488 39.9274 34.3122 39.8834 34.5631C39.7501 35.3236 39.2055 35.7444 38.4522 35.7007C37.6974 35.6571 37.2407 35.1802 37.2203 34.3776C37.2015 33.628 37.2094 32.8768 37.2094 32.1272C37.2094 24.7028 37.2094 17.2768 37.2094 9.85242C37.2094 9.62021 37.2188 9.38645 37.2047 9.15424C37.1591 8.34385 36.7904 7.93086 35.979 7.80151C35.7232 7.76099 35.4596 7.75787 35.1991 7.75787C26.5225 7.75632 17.8474 7.75632 9.1708 7.75632C9.04055 7.75632 8.90873 7.7532 8.77848 7.75943C7.63446 7.81865 7.17937 8.27216 7.1778 9.41138C7.17152 13.8607 7.17309 18.3116 7.17466 22.761C7.17466 26.4872 7.18093 30.2119 7.18407 33.9381C7.18407 34.1454 7.19035 34.3527 7.16995 34.5584C7.09933 35.28 6.59873 35.7132 5.85488 35.707C5.1079 35.7023 4.6324 35.2737 4.5712 34.5319C4.55237 34.2997 4.56021 34.0659 4.56021 33.8337C4.56021 25.1407 4.56021 16.4477 4.56021 7.75476C4.56021 7.52255 4.55551 7.28878 4.5712 7.05658C4.6324 6.1932 5.24913 5.56671 6.11695 5.4919C6.37589 5.47008 6.63953 5.48255 6.90003 5.48255C12.0222 5.48255 17.1444 5.48255 22.2666 5.48255H22.2681Z" fill="#6F6F84"/>
<path d="M135.92 25.6209C137.825 29.0557 139.68 32.4001 141.567 35.8037H139.179C138.225 34.0754 137.272 32.358 136.324 30.6375C135.549 29.2318 134.76 27.8338 134.016 26.4125C133.782 25.9668 133.517 25.7689 132.99 25.7814C131.58 25.8172 130.17 25.7907 128.759 25.7954C128.556 25.7954 128.352 25.8297 128.051 25.8562V35.7944H125.978V13.5663C126.196 13.5523 126.397 13.5289 126.6 13.5289C128.95 13.5258 131.301 13.518 133.652 13.532C134.962 13.5398 136.255 13.6988 137.5 14.1414C139.964 15.0172 141.28 16.8453 141.263 19.4448C141.258 20.1351 141.196 20.8442 141.024 21.5112C140.557 23.3377 139.297 24.4707 137.556 25.1159C137.049 25.3045 136.522 25.437 135.918 25.6224L135.92 25.6209ZM128.078 23.8567C128.222 23.8941 128.296 23.9299 128.368 23.9299C130.43 23.9253 132.495 23.9689 134.553 23.8816C135.392 23.8458 136.254 23.6074 137.046 23.3066C138.335 22.8172 138.961 21.7637 139.104 20.4328C139.151 19.998 139.144 19.5538 139.121 19.1175C139.039 17.598 138.289 16.5149 136.842 15.999C136.139 15.7481 135.378 15.5596 134.637 15.5331C132.579 15.4598 130.515 15.4848 128.453 15.4785C128.334 15.4785 128.213 15.5362 128.076 15.5705V23.8583L128.078 23.8567Z" fill="#40342B"/>
<path d="M22.2244 35.7117C18.6966 35.8176 15.7432 32.8613 15.7134 29.3672C15.6836 25.9714 18.4565 22.8857 22.1883 22.8826C25.9813 22.881 28.6648 25.9652 28.6977 29.2535C28.7338 32.7537 25.7961 35.7958 22.2244 35.7117V35.7117Z" fill="#A7715F"/>
<path d="M173.795 13.5459H175.85V22.948C176.53 23.1459 187.267 23.1693 188.108 22.9854V13.588H190.158V35.7724H188.154V25.069H175.945C175.803 25.9542 175.899 26.8519 175.882 27.7417C175.865 28.6207 175.879 29.4997 175.879 30.3786V35.7755H173.795V13.5459V13.5459Z" fill="#40342B"/>
<path d="M67.4309 35.7927H65.4018C65.3673 34.6223 65.3893 33.4457 65.3861 32.2691C65.3814 31.08 65.3861 29.8893 65.3861 28.6987V25.161C64.7647 24.9771 54.1421 24.9382 53.1362 25.1127V35.7927H51.1087C50.9329 35.1974 50.8498 16.108 51.0177 13.588H53.097V23.0462H65.3767V13.5693H67.4325V35.7927H67.4309Z" fill="#40342B"/>
<path d="M80.0373 33.8899H91.8603V35.7943H77.936V13.5725H91.2247V15.4847H80.02V23.0697H88.3702V24.9632H80.1298C79.9384 25.585 79.8756 32.3284 80.0388 33.8899H80.0373Z" fill="#40342B"/>
<path d="M107.012 13.4977H109.372C112.018 20.9283 114.657 28.3387 117.317 35.8052H115.112C114.314 33.5423 113.51 31.2639 112.699 28.9636H103.533C102.731 31.2421 101.934 33.5034 101.128 35.7912H99.0727C101.722 28.3496 104.355 20.9595 107.012 13.4961V13.4977ZM104.215 27.014H112.019C110.725 23.3049 109.458 19.6738 108.19 16.0426C108.137 16.0488 108.084 16.0535 108.03 16.0597C106.767 19.6862 105.504 23.3127 104.214 27.014H104.215Z" fill="#40342B"/>
<path d="M148.548 15.4816V13.5679H165.124V15.491H157.926V35.771H155.779V15.4816H148.548Z" fill="#40342B"/>
</g>
<defs>
<clipPath id="clip0_633_6801">
<rect width="190" height="36" fill="white"/>
</clipPath>
</defs>
</svg>
