<svg width="20" height="18" viewBox="0 0 20 18" fill="none" xmlns="http://www.w3.org/2000/svg">
<path d="M19.4721 0.286133C19.5956 0.390315 19.7367 0.479288 19.8379 0.60096C20.0442 0.847347 20.0534 1.60172 19.8663 1.86559C19.7436 2.03898 19.5818 2.15304 19.3571 2.15457C19.2681 2.15457 19.1784 2.15609 19.0894 2.15609C13.0279 2.15609 6.9663 2.15609 0.90472 2.15457C0.75364 2.15457 0.599493 2.14316 0.453016 2.1097C0.372491 2.09145 0.295034 2.02605 0.232915 1.96521C-0.176609 1.56369 -0.0193946 0.628337 0.495962 0.372064C0.541209 0.350011 0.579554 0.31503 0.6202 0.286133C6.90418 0.286133 13.1882 0.286133 19.4721 0.286133Z" fill="#BFC0D1"/>
<path d="M10.051 2.95974C12.5794 2.95974 15.1079 2.95746 17.6364 2.9643C17.8342 2.9643 18.0482 2.99624 18.2269 3.07533C18.5022 3.19776 18.6264 3.45479 18.6648 3.74529C18.6794 3.85707 18.674 3.9719 18.674 4.08521C18.674 8.31409 18.674 12.5437 18.674 16.7726C18.674 16.8988 18.6809 17.0274 18.6594 17.1498C18.5942 17.5209 18.3281 17.7262 17.96 17.7049C17.5911 17.6836 17.368 17.4509 17.358 17.0593C17.3488 16.6935 17.3526 16.327 17.3526 15.9612C17.3526 12.3384 17.3526 8.71485 17.3526 5.09205C17.3526 4.97874 17.3572 4.86467 17.3503 4.75137C17.3281 4.35593 17.1479 4.15441 16.7514 4.09129C16.6264 4.07152 16.4975 4.07 16.3702 4.07C12.13 4.06924 7.89061 4.06924 3.65043 4.06924C3.58677 4.06924 3.52235 4.06772 3.4587 4.07076C2.89963 4.09966 2.67723 4.32095 2.67646 4.87684C2.6734 7.04793 2.67416 9.21979 2.67493 11.3909C2.67493 13.2091 2.678 15.0266 2.67953 16.8449C2.67953 16.946 2.6826 17.0471 2.67263 17.1475C2.63812 17.4996 2.39348 17.711 2.02997 17.708C1.66492 17.7057 1.43255 17.4966 1.40264 17.1346C1.39344 17.0213 1.39728 16.9072 1.39728 16.7939C1.39728 12.5521 1.39728 8.31029 1.39728 4.06848C1.39728 3.95517 1.39498 3.8411 1.40264 3.7278C1.43255 3.3065 1.73395 3.0008 2.15804 2.9643C2.28458 2.95365 2.41342 2.95974 2.54072 2.95974C5.04388 2.95974 7.54704 2.95974 10.0502 2.95974H10.051Z" fill="#BFC0D1"/>
<path d="M10.0277 17.7132C8.3037 17.7649 6.86039 16.3223 6.84582 14.6174C6.83125 12.9603 8.18636 11.4546 10.01 11.4531C11.8636 11.4524 13.175 12.9573 13.1912 14.5619C13.2088 16.2698 11.7732 17.7542 10.0277 17.7132Z" fill="#BFC0D1"/>
</svg>
